<?xml version="1.0" encoding="UTF-8" standalone="no"?>
<!-- Created with Inkscape (http://www.inkscape.org/) -->

<svg
   xmlns:dc="http://purl.org/dc/elements/1.1/"
   xmlns:cc="http://creativecommons.org/ns#"
   xmlns:rdf="http://www.w3.org/1999/02/22-rdf-syntax-ns#"
   xmlns:svg="http://www.w3.org/2000/svg"
   xmlns="http://www.w3.org/2000/svg"
   xmlns:sodipodi="http://sodipodi.sourceforge.net/DTD/sodipodi-0.dtd"
   xmlns:inkscape="http://www.inkscape.org/namespaces/inkscape"
   width="210mm"
   height="297mm"
   viewBox="0 0 210 297"
   version="1.1"
   id="svg4753"
   inkscape:version="0.92.1 r15371"
   sodipodi:docname="firefly logo.svg">
  <defs
     id="defs4747">
    <inkscape:path-effect
       effect="spiro"
       id="path-effect4713"
       is_visible="true" />
    <inkscape:path-effect
       effect="spiro"
       id="path-effect4709"
       is_visible="true" />
  </defs>
  <sodipodi:namedview
     id="base"
     pagecolor="#ffffff"
     bordercolor="#666666"
     borderopacity="1.0"
     inkscape:pageopacity="0.0"
     inkscape:pageshadow="2"
     inkscape:zoom="0.98994949"
     inkscape:cx="551.79201"
     inkscape:cy="517.38617"
     inkscape:document-units="mm"
     inkscape:current-layer="layer1"
     showgrid="false"
     inkscape:window-width="1841"
     inkscape:window-height="1342"
     inkscape:window-x="686"
     inkscape:window-y="14"
     inkscape:window-maximized="0" />
  <metadata
     id="metadata4750">
    <rdf:RDF>
      <cc:Work
         rdf:about="">
        <dc:format>image/svg+xml</dc:format>
        <dc:type
           rdf:resource="http://purl.org/dc/dcmitype/StillImage" />
        <dc:title></dc:title>
      </cc:Work>
    </rdf:RDF>
  </metadata>
  <g
     inkscape:label="Layer 1"
     inkscape:groupmode="layer"
     id="layer1">
    <circle
       id="path3691"
       cx="61.669323"
       cy="165.47481"
       style="fill:#f1b216;fill-opacity:1;stroke-width:0.40632868"
       r="6.591969" />
    <circle
       id="path3691-1"
       cx="61.567417"
       cy="190.39993"
       style="fill:#f1b216;stroke-width:0.34931409;fill-opacity:1"
       r="5.667007" />
    <ellipse
       id="path3691-1-3"
       cx="71.848328"
       cy="211.15305"
       style="fill:#f1b216;stroke-width:0.33437067;fill-opacity:1"
       rx="5.3807092"
       ry="5.468801" />
    <ellipse
       id="path3691-1-3-0"
       cx="87.1287"
       cy="227.50099"
       style="fill:#f1b216;stroke-width:0.30746293;fill-opacity:1"
       rx="4.9477086"
       ry="5.0287113" />
    <ellipse
       id="path3691-1-3-0-5"
       cx="106.12417"
       cy="236.03218"
       style="fill:#f1b216;stroke-width:0.28230232;fill-opacity:1"
       rx="4.5428228"
       ry="4.6171966" />
    <ellipse
       id="path3691-1-3-0-5-2"
       cx="128.45044"
       cy="234.53444"
       style="fill:#f1b216;stroke-width:0.26458725;fill-opacity:1"
       rx="4.2577505"
       ry="4.3274574" />
    <ellipse
       id="path3691-1-3-0-5-9"
       cx="142.91382"
       cy="224.60782"
       style="fill:#f1b216;stroke-width:0.25178871;fill-opacity:1"
       rx="4.051796"
       ry="4.1181307" />
    <ellipse
       id="path3691-1-3-0-5-97"
       cx="151.92752"
       cy="209.66655"
       style="fill:#f1b216;stroke-width:0.23516351;fill-opacity:1"
       rx="3.7842631"
       ry="3.8462179" />
    <ellipse
       id="path3691-1-3-0-5-0"
       cx="151.54771"
       cy="191.65041"
       style="fill:#f1b216;stroke-width:0.20382121;fill-opacity:1"
       rx="3.2799008"
       ry="3.3335984" />
    <ellipse
       id="path3691-1-3-0-5-3"
       cx="140.07031"
       cy="181.38177"
       style="fill:#f1b216;stroke-width:0.18153508;fill-opacity:1"
       rx="2.9212713"
       ry="2.9690979" />
    <ellipse
       id="path3691-1-3-0-5-8"
       cx="125.46526"
       cy="182.28343"
       style="fill:#f1b216;stroke-width:0.16811174;fill-opacity:1"
       rx="2.7052624"
       ry="2.749552" />
    <ellipse
       id="path3691-1-3-0-5-7"
       cx="118.16898"
       cy="193.1053"
       style="fill:#f1b216;stroke-width:0.1366266;fill-opacity:1"
       rx="2.1986022"
       ry="2.234597" />
    <ellipse
       style="fill:#f1b216;fill-opacity:1;stroke-width:0.43863076"
       id="path3826"
       cx="146.96721"
       cy="50.617039"
       rx="7.7499051"
       ry="9.0848198"
       transform="matrix(0.73040896,0.68301007,-0.61986597,0.78470771,0,0)" />
    <ellipse
       style="fill:#f1b216;fill-opacity:1;stroke-width:0.50229156"
       id="path3834"
       cx="139.79025"
       cy="59.019772"
       rx="11.682078"
       ry="7.8059807"
       transform="matrix(0.79295399,0.60928152,-0.53085923,0.84746002,0,0)" />
    <ellipse
       style="fill:#f1b216;fill-opacity:1;stroke-width:0.46424937"
       id="path3838"
       cx="139.83487"
       cy="52.870701"
       rx="14.883807"
       ry="9.1732454"
       transform="matrix(0.81428251,0.58046877,-0.51846909,0.85509637,0,0)" />
    <ellipse
       style="fill:#0055d4;fill-opacity:1;stroke-width:0.48997957"
       id="path3840"
       cx="157.05916"
       cy="-61.230656"
       rx="22.939539"
       ry="29.452505"
       transform="matrix(0.34433777,0.93884583,-0.74963279,0.66185397,0,0)" />
    <ellipse
       style="fill:#0066ff;fill-opacity:1;stroke-width:0.77085799"
       id="path3844"
       cx="39.217983"
       cy="125.74547"
       rx="22.758133"
       ry="7.8343439"
       transform="matrix(0.92829816,-0.37183668,0.32161634,0.94687007,0,0)" />
    <ellipse
       style="fill:#5599ff;fill-opacity:1;stroke-width:0.77085799"
       id="path3844-7"
       cx="-111.32703"
       cy="121.05783"
       rx="22.758133"
       ry="7.8343439"
       transform="matrix(0.07409039,-0.99725153,0.99185627,0.12736223,0,0)" />
    <ellipse
       style="fill:#aaccff;fill-opacity:1;stroke-width:0.80142444"
       id="path3844-7-0"
       cx="-168.72527"
       cy="-3.9578426"
       rx="23.636812"
       ry="8.1531754"
       transform="matrix(-0.75769636,-0.65260725,0.67933784,-0.73382566,0,0)" />
    <ellipse
       style="fill:#aaccff;fill-opacity:1;stroke-width:0.80988514"
       id="path3844-7-0-9"
       cx="-110.80251"
       cy="-52.93182"
       rx="24.178837"
       ry="8.1395798"
       transform="matrix(-0.93188218,-0.36276108,0.418938,-0.90801484,0,0)" />
    <path
       style="fill:none;stroke:#000000;stroke-width:1.53592873;stroke-linecap:butt;stroke-linejoin:miter;stroke-miterlimit:4;stroke-dasharray:none;stroke-opacity:1"
       d="m 102.37379,59.20753 c -0.0968,1.300249 0.0184,2.616051 0.33974,3.879683 0.1594,0.626846 0.3732,1.249106 0.73507,1.785201 0.57013,0.844623 1.46083,1.411678 2.34721,1.914429 1.06193,0.602321 2.1555,1.148047 3.26843,1.649904 1.16454,0.525128 2.38622,1.026477 3.26999,1.948904 0.49358,0.515167 0.86688,1.161723 0.97979,1.866185 0.12242,0.763844 -0.0654,1.549194 -0.37477,2.258237 -0.39487,0.905023 -0.98113,1.710986 -1.55707,2.51303 -0.68511,0.954063 -1.36217,1.913903 -2.03109,2.879385"
       id="path4707"
       inkscape:connector-curvature="0"
       inkscape:path-effect="#path-effect4709"
       inkscape:original-d="m 102.37379,59.20753 c 0.12525,1.259185 0.21519,2.619783 0.33974,3.879683 0.12459,1.259902 0.45412,1.205523 0.73507,1.785201 0.28095,0.579682 1.49305,1.322091 2.34721,1.914429 0.85415,0.592341 2.44791,1.203458 3.26843,1.649904 0.82053,0.446423 1.98382,1.148848 3.26999,1.948904 1.28617,0.800053 0.65353,1.243758 0.97979,1.866185 0.32626,0.622428 -0.24951,1.505119 -0.37477,2.258237 -0.12524,0.753093 -1.0377,1.674993 -1.55707,2.51303 -0.51936,0.838037 -1.35373,1.919239 -2.03109,2.879385"
       sodipodi:nodetypes="cccccscccc" />
    <path
       style="fill:none;stroke:#000000;stroke-width:1.53592873;stroke-linecap:butt;stroke-linejoin:miter;stroke-miterlimit:4;stroke-dasharray:none;stroke-opacity:1"
       d="m 117.31626,83.75204 c 0.61401,-1.3744 1.30005,-2.716615 2.05437,-4.019295 0.6136,-1.059651 1.27802,-2.100497 2.12044,-2.989141 0.36936,-0.389628 0.77525,-0.750946 1.24232,-1.015678 0.4976,-0.282037 1.06372,-0.449802 1.63568,-0.453804 0.89173,-0.0062 1.74443,0.380052 2.48431,0.877852 0.68854,0.463258 1.30427,1.025727 1.90173,1.601691 1.2063,1.16289 2.3924,2.419927 3.92966,3.086491 1.36943,0.593791 2.93019,0.665424 4.39343,0.370719 0.8232,-0.165799 1.62369,-0.444011 2.37228,-0.824497"
       id="path4711"
       inkscape:connector-curvature="0"
       inkscape:path-effect="#path-effect4713"
       inkscape:original-d="m 117.31626,83.75204 c 0.68328,-1.325513 1.36997,-2.67982 2.05437,-4.019295 0.68439,-1.339488 1.414,-1.993082 2.12044,-2.989141 0.70642,-0.996087 0.82858,-0.677431 1.24232,-1.015678 0.4137,-0.33826 1.09085,-0.302835 1.63568,-0.453804 0.54487,-0.150956 1.65661,0.584932 2.48431,0.877852 0.82772,0.292934 1.26822,1.067491 1.90173,1.601691 0.63351,0.534186 2.62017,2.057379 3.92966,3.086491 1.30948,1.029152 2.92933,0.24687 4.39343,0.370719 1.46408,0.124061 1.5819,-0.549954 2.37228,-0.824497" />
    <path
       style="fill:#000000;fill-opacity:1;stroke:#000006;stroke-width:3.14510679;stroke-miterlimit:4;stroke-dasharray:none;stroke-opacity:1"
       d="m 332.40439,512.4109 c -17.88594,-3.93745 -31.74715,-17.16045 -38.113,-36.35817 -3.67676,-11.08815 -4.57624,-18.20502 -4.25368,-33.65623 0.15976,-7.6528 0.61222,-14.1487 1.0375,-14.89513 0.43215,-0.75849 4.99442,-3.06333 10.68454,-5.39779 22.14295,-9.08448 42.94873,-21.57716 54.79213,-32.89952 3.68231,-3.52031 7.56411,-7.65454 8.62623,-9.18716 1.81986,-2.62608 2.19682,-2.81383 6.5434,-3.25915 2.53675,-0.2599 6.55051,-1.07579 8.91945,-1.81309 20.95079,-6.52061 14.09491,-25.94392 -16.45085,-46.60671 -3.73215,-2.52462 -8.15848,-5.35898 -9.8363,-6.29857 l -3.05058,-1.70836 1.97915,-1.65582 c 4.09359,-3.42482 17.03413,-11.82708 22.26359,-14.45569 11.53261,-5.79692 25.45649,-9.5613 33.94996,-9.17852 l 4.71852,0.21266 -1.78814,2.62633 -1.78815,2.62634 2.396,1.48081 c 1.3178,0.81444 2.5457,1.4808 2.72868,1.4808 0.18297,0 1.55024,-1.76786 3.03838,-3.92857 1.48814,-2.16071 3.09037,-3.92857 3.56052,-3.92857 3.61808,0 14.12902,4.58569 19.51281,8.513 l 3.04159,2.21875 -2.1955,4.34926 c -1.20753,2.39209 -2.0941,4.43657 -1.97016,4.54328 0.45576,0.39242 4.80878,2.51857 5.15645,2.51857 0.19755,0 1.03811,-1.52679 1.8679,-3.39286 l 1.50872,-3.39286 2.01588,2.24288 c 1.10873,1.23358 3.12921,4.14247 4.48993,6.4642 8.15655,13.91703 11.66766,32.4136 9.91368,52.22531 -0.47355,5.34886 -0.98282,9.84702 -1.1317,9.9959 -0.14889,0.14889 -2.61843,-1.10045 -5.48788,-2.77629 -7.10014,-4.1467 -18.41033,-9.39304 -24.89335,-11.54702 -29.2469,-9.71725 -40.4379,3.99671 -25.67858,31.46771 l 2.80216,5.21555 -2.57958,5.12234 c -8.79209,17.45876 -14.39732,42.26494 -15.9759,70.70189 -0.37602,6.77386 -0.69544,13.4411 -0.7098,14.8161 -0.024,2.30119 -0.38015,2.70775 -4.47792,5.11228 -10.68881,6.27209 -21.28418,10.45712 -31.2709,12.35157 -6.99711,1.32732 -17.98977,1.35057 -23.8952,0.0506 z"
       id="path4807"
       inkscape:connector-curvature="0"
       transform="scale(0.26458333)" />
    <path
       style="fill:#000000;fill-opacity:1;stroke:#000006;stroke-width:3.14510679;stroke-miterlimit:4;stroke-dasharray:none;stroke-opacity:1"
       d="m 224.30845,435.99292 c -17.03341,-3.88241 -18.36589,-15.81965 -3.51689,-31.50659 13.81912,-14.59894 37.57612,-28.83358 65.51609,-39.25572 l 8.18897,-3.05464 6.54989,2.37096 c 19.60172,7.09554 42.724,11.98685 59.92931,12.67753 l 4.28572,0.17204 -6.42858,6.70504 c -12.68771,13.23335 -31.46846,25.1173 -56.78571,35.93248 -4.51786,1.92997 -9.36765,4.26585 -10.77731,5.19086 -4.08345,2.6795 -20.6535,7.44386 -35.22247,10.12746 -8.49887,1.56548 -26.12077,1.92115 -31.73902,0.64058 z"
       id="path4809"
       inkscape:connector-curvature="0"
       transform="scale(0.26458333)" />
    <path
       style="fill:#000000;fill-opacity:1;stroke:#000000;stroke-width:3.14510679;stroke-miterlimit:4;stroke-dasharray:none;stroke-opacity:1"
       d="m 353.83296,374.83482 c -14.94674,-1.53262 -32.80279,-5.54115 -48.89882,-10.97735 -5.28722,-1.78567 -10.36791,-3.24668 -11.29043,-3.24668 -3.79377,0 -25.44618,-10.24497 -38.35211,-18.14652 -22.81215,-13.96658 -35.65503,-28.35996 -34.49422,-38.65865 0.97074,-8.61236 10.80616,-13.15612 28.53472,-13.18243 19.19315,-0.0285 42.06919,4.83643 67.71515,14.40061 12.61734,4.70539 32.13723,14.05624 31.70325,15.18718 -0.18144,0.4728 0.56647,1.26754 1.66201,1.76609 3.75259,1.70771 16.27627,10.22274 22.81177,15.51006 7.15563,5.78902 13.69373,13.24996 15.92932,18.17772 4.4778,9.87013 -0.78284,16.31936 -15.38946,18.86654 -6.65224,1.16006 -10.94048,1.22534 -19.93118,0.30343 z"
       id="path4811"
       inkscape:connector-curvature="0"
       transform="scale(0.26458333)" />
    <path
       style="fill:#000000;fill-opacity:1;stroke:#000000;stroke-width:3.14510679;stroke-miterlimit:4;stroke-dasharray:none;stroke-opacity:1"
       d="m 517.40439,487.78395 c -16.65853,-4.39655 -38.39383,-16.52155 -58.55284,-32.66363 -9.91645,-7.94047 -25.3041,-22.8443 -32.6799,-31.65239 -7.21291,-8.61357 -13.61915,-17.65534 -13.10197,-18.49215 0.21947,-0.35511 -1.02183,-3.33072 -2.75844,-6.61246 -4.38927,-8.29459 -6.12167,-13.87091 -6.11846,-19.69428 0.005,-8.22539 3.32257,-11.55339 12.13449,-12.17093 8.72764,-0.61164 20.39207,3.12814 38.93427,12.48288 5.10714,2.5766 10.57142,5.32973 12.14285,6.11805 8.01788,4.02224 28.02613,20.24045 40.71429,33.00203 23.03428,23.16757 36.12239,45.24814 35.22008,59.41877 -0.34369,5.39743 -1.83061,7.76837 -6.3061,10.05523 -3.99541,2.04155 -12.34749,2.13043 -19.62827,0.20888 z"
       id="path4813"
       inkscape:connector-curvature="0"
       transform="scale(0.26458333)" />
    <path
       style="fill:#000000;fill-opacity:1;stroke:#000005;stroke-width:3.14510679;stroke-miterlimit:4;stroke-dasharray:none;stroke-opacity:1"
       d="m 413.11868,562.34693 c -7.25245,-3.76421 -13.21785,-15.26272 -16.6609,-32.11441 -3.07318,-15.04137 -3.63817,-25.872 -2.34639,-44.97887 1.6428,-24.29875 4.70646,-43.05819 9.50717,-58.21429 2.17804,-6.87619 7.56151,-19.29641 8.35372,-19.27288 0.23766,0.007 1.45056,1.57087 2.69532,3.47514 4.89424,7.48735 14.17235,18.1091 25.54143,29.2403 l 11.90595,11.65685 -0.0193,13.34315 c -0.0294,20.27369 -2.19751,37.91188 -6.83479,55.60212 -3.00766,11.47358 -5.00975,16.88838 -9.35529,25.30216 -6.92813,13.41412 -15.76623,19.60464 -22.78689,15.96073 z"
       id="path4815"
       inkscape:connector-curvature="0"
       transform="scale(0.26458333)" />
  </g>
</svg>
